<svg width="53" height="52" viewBox="0 0 53 52" fill="none" xmlns="http://www.w3.org/2000/svg">
<path d="M39.8016 19.2702C39.4811 18.0637 38.5371 17.1135 37.3384 16.791C35.1657 16.2051 26.4534 16.2051 26.4534 16.2051C26.4534 16.2051 17.7411 16.2051 15.5684 16.791C14.3697 17.1135 13.4256 18.0637 13.1052 19.2702C12.523 21.457 12.523 26.0196 12.523 26.0196C12.523 26.0196 12.523 30.5823 13.1052 32.7691C13.4256 33.9756 14.3697 34.8862 15.5684 35.2087C17.7411 35.7946 26.4534 35.7946 26.4534 35.7946C26.4534 35.7946 35.1656 35.7946 37.3384 35.2087C38.5371 34.8862 39.4811 33.9756 39.8016 32.7691C40.3837 30.5823 40.3837 26.0196 40.3837 26.0196C40.3837 26.0196 40.3837 21.457 39.8016 19.2702ZM23.604 30.1622V21.8771L30.8857 26.0198L23.604 30.1622Z" fill="#B0F945"/>
<circle cx="26.3135" cy="26" r="25" stroke="#B0F945" stroke-width="2"/>
</svg>
